<svg version="1.1" id="Layer_1" xmlns="http://www.w3.org/2000/svg" xmlns:xlink="http://www.w3.org/1999/xlink" x="0px" y="0px"
	 width="100%" viewBox="0 0 2312 2824" enable-background="new 0 0 2312 2824" xml:space="preserve">
<path fill="#000000" opacity="1.000000" stroke="none" 
	d="
M768.000000,1.999993 
	C1283.148560,2.000000 1798.297241,2.000000 2314.000000,2.000000 
	C2314.000000,272.051392 2314.000000,542.103210 2313.278809,813.357178 
	C2310.402100,809.770142 2308.280762,804.965088 2306.084473,800.194641 
	C2299.016357,784.843201 2288.176758,773.024048 2271.052002,770.510742 
	C2259.698975,768.844543 2247.667725,769.396729 2236.255127,771.085876 
	C2217.388672,773.878235 2199.891357,781.533691 2182.776611,789.822937 
	C2145.789062,807.737061 2111.754883,830.417908 2078.544434,854.429504 
	C2075.704590,856.482727 2072.726562,858.344727 2068.998535,860.840698 
	C2069.591309,850.044861 2069.952393,840.789978 2070.635742,831.559021 
	C2072.252441,809.723145 2074.542725,787.921814 2075.518799,766.059998 
	C2076.034424,754.509155 2075.057617,742.768555 2073.517334,731.279541 
	C2071.477051,716.058777 2067.480225,701.242859 2058.298828,688.462524 
	C2047.233032,673.058899 2032.223389,667.483276 2013.801392,671.664001 
	C2002.147095,674.309021 1992.335815,680.452454 1983.074341,687.672668 
	C1965.857178,701.094971 1952.050415,717.672180 1939.396362,735.258728 
	C1917.565186,765.599854 1899.626221,798.284241 1882.206665,831.258179 
	C1876.215210,842.599670 1870.657593,854.170349 1864.900635,865.638611 
	C1863.710083,865.016846 1862.889526,864.869568 1862.633789,864.408813 
	C1861.019897,861.501160 1859.484131,858.547424 1858.008911,855.566223 
	C1840.636963,820.461060 1820.432251,787.347595 1791.610107,760.197021 
	C1777.509399,746.914124 1762.844604,734.485718 1744.584717,727.179077 
	C1722.649780,718.401794 1702.179199,719.688721 1684.584717,736.927979 
	C1674.011353,747.287781 1666.253540,759.589294 1660.997559,773.534668 
	C1651.505615,798.719177 1648.432495,825.138062 1646.471313,851.617859 
	C1644.827148,873.815857 1644.938599,896.143616 1644.251343,918.413269 
	C1644.205078,919.914917 1643.979248,921.411011 1643.822632,923.060547 
	C1642.464233,922.651550 1641.708374,922.656616 1641.344971,922.281494 
	C1620.703735,900.976379 1597.965332,882.035950 1574.817261,863.588684 
	C1546.618164,841.116272 1517.226562,820.486694 1482.862427,808.296509 
	C1465.058960,801.981079 1447.574585,794.504395 1427.874878,795.565735 
	C1415.973755,796.206909 1407.711548,801.259644 1402.073608,811.400208 
	C1396.178955,822.002136 1396.804688,833.343201 1399.111450,844.497192 
	C1408.056152,887.745361 1423.152100,928.971802 1443.120605,968.210083 
	C1470.040283,1021.107117 1501.874634,1071.061768 1537.538696,1118.526733 
	C1555.929443,1143.002441 1574.596191,1167.270630 1593.077759,1191.678223 
	C1594.306763,1193.301392 1595.020874,1195.314575 1596.298096,1197.768066 
	C1576.703003,1199.838745 1558.251221,1201.821167 1539.791992,1203.730469 
	C1517.997681,1205.984985 1496.192261,1208.130981 1474.400024,1210.404297 
	C1432.159790,1214.810669 1389.944824,1219.468994 1347.681274,1223.637695 
	C1323.243896,1226.048218 1298.742554,1227.848511 1274.250610,1229.661011 
	C1252.395386,1231.278198 1230.513306,1232.537476 1208.642944,1233.949707 
	C1178.831787,1235.874756 1149.026855,1237.904297 1119.206421,1239.672241 
	C1103.617432,1240.596313 1088.006226,1241.394653 1072.395386,1241.646973 
	C1048.746582,1242.029541 1025.089233,1241.886475 1001.818970,1241.372070 
	C1009.167969,1236.244751 1016.414917,1232.086182 1023.041260,1227.102417 
	C1037.421997,1216.286255 1036.479004,1196.625854 1023.924683,1186.697632 
	C1019.103210,1182.884766 1013.197998,1179.886719 1007.307495,1178.077637 
	C981.921326,1170.280640 956.259888,1163.379517 930.880066,1155.563354 
	C887.265991,1142.131836 844.954895,1125.762207 805.537231,1102.168823 
	C762.341187,1076.313721 729.248901,1041.522095 707.053101,996.400818 
	C684.499573,950.552185 672.228821,901.950562 668.298767,851.092102 
	C665.872314,819.690918 662.565857,788.352844 660.477905,756.931641 
	C657.960205,719.044861 651.869324,681.887268 642.025879,645.194336 
	C624.606018,580.259277 598.137085,519.697571 556.144104,466.793274 
	C542.572388,449.695129 527.143433,433.969727 511.653168,418.530304 
	C500.663849,407.577057 488.145538,398.157837 477.140350,388.117737 
	C479.968231,388.252136 481.994080,388.129944 483.958405,388.421875 
	C519.594727,393.717560 554.076843,403.773743 587.984375,415.452576 
	C631.095825,430.301544 672.356995,449.755615 713.639221,469.036743 
	C748.595093,485.363068 783.225403,502.436096 818.586975,517.829773 
	C851.976196,532.364868 886.681213,542.594299 923.861328,538.213379 
	C949.421143,535.201599 970.432556,524.220581 982.272095,500.298584 
	C992.690857,479.247192 996.195129,456.591888 993.532471,433.288971 
	C988.030212,385.134277 964.712891,346.159058 930.252319,313.214508 
	C923.857117,307.100616 916.817993,301.660339 909.960205,295.810272 
	C911.018982,294.814941 911.394775,294.224609 911.924194,294.005463 
	C914.066284,293.118622 916.278748,292.402252 918.423950,291.522400 
	C935.386780,284.565125 952.138306,277.217163 966.167175,264.984802 
	C978.171692,254.517502 983.675476,241.060226 984.288147,225.378159 
	C985.111633,204.300858 974.898193,188.388824 960.031982,174.993118 
	C944.735168,161.209320 925.673462,154.715988 906.186218,150.207687 
	C891.385193,146.783524 876.136841,144.642838 860.973267,143.613663 
	C844.810059,142.516678 828.512695,143.400177 812.273865,143.414764 
	C805.559814,143.420792 798.845764,143.415756 791.164673,143.415756 
	C797.192383,134.034866 803.143799,126.025269 807.773071,117.313118 
	C818.065613,97.942734 825.088440,77.778526 820.268982,55.186977 
	C815.458618,32.637642 803.778809,16.234087 780.936829,9.234198 
	C777.124634,8.065966 773.283691,6.933569 769.610962,5.411157 
	C768.750488,5.054495 768.520203,3.177517 768.000000,1.999993 
z"/>
<path fill="#B3542D" opacity="1.000000" stroke="none" 
	d="
M1001.435547,1241.966675 
	C1025.089233,1241.886475 1048.746582,1242.029541 1072.395386,1241.646973 
	C1088.006226,1241.394653 1103.617432,1240.596313 1119.206421,1239.672241 
	C1149.026855,1237.904297 1178.831787,1235.874756 1208.642944,1233.949707 
	C1230.513306,1232.537476 1252.395386,1231.278198 1274.250610,1229.661011 
	C1298.742554,1227.848511 1323.243896,1226.048218 1347.681274,1223.637695 
	C1389.944824,1219.468994 1432.159790,1214.810669 1474.400024,1210.404297 
	C1496.192261,1208.130981 1517.997681,1205.984985 1539.791992,1203.730469 
	C1558.251221,1201.821167 1576.703003,1199.838745 1596.298096,1197.768066 
	C1595.020874,1195.314575 1594.306763,1193.301392 1593.077759,1191.678223 
	C1574.596191,1167.270630 1555.929443,1143.002441 1537.538696,1118.526733 
	C1501.874634,1071.061768 1470.040283,1021.107117 1443.120605,968.210083 
	C1423.152100,928.971802 1408.056152,887.745361 1399.111450,844.497192 
	C1396.804688,833.343201 1396.178955,822.002136 1402.073608,811.400208 
	C1407.711548,801.259644 1415.973755,796.206909 1427.874878,795.565735 
	C1447.574585,794.504395 1465.058960,801.981079 1482.862427,808.296509 
	C1517.226562,820.486694 1546.618164,841.116272 1574.817261,863.588684 
	C1597.965332,882.035950 1620.703735,900.976379 1641.344971,922.281494 
	C1641.708374,922.656616 1642.464233,922.651550 1643.822632,923.060547 
	C1643.979248,921.411011 1644.205078,919.914917 1644.251343,918.413269 
	C1644.938599,896.143616 1644.827148,873.815857 1646.471313,851.617859 
	C1648.432495,825.138062 1651.505615,798.719177 1660.997559,773.534668 
	C1666.253540,759.589294 1674.011353,747.287781 1684.584717,736.927979 
	C1702.179199,719.688721 1722.649780,718.401794 1744.584717,727.179077 
	C1762.844604,734.485718 1777.509399,746.914124 1791.610107,760.197021 
	C1820.432251,787.347595 1840.636963,820.461060 1858.008911,855.566223 
	C1859.484131,858.547424 1861.019897,861.501160 1862.633789,864.408813 
	C1862.889526,864.869568 1863.710083,865.016846 1864.900635,865.638611 
	C1870.657593,854.170349 1876.215210,842.599670 1882.206665,831.258179 
	C1899.626221,798.284241 1917.565186,765.599854 1939.396362,735.258728 
	C1952.050415,717.672180 1965.857178,701.094971 1983.074341,687.672668 
	C1992.335815,680.452454 2002.147095,674.309021 2013.801392,671.664001 
	C2032.223389,667.483276 2047.233032,673.058899 2058.298828,688.462524 
	C2067.480225,701.242859 2071.477051,716.058777 2073.517334,731.279541 
	C2075.057617,742.768555 2076.034424,754.509155 2075.518799,766.059998 
	C2074.542725,787.921814 2072.252441,809.723145 2070.635742,831.559021 
	C2069.952393,840.789978 2069.591309,850.044861 2068.998535,860.840698 
	C2072.726562,858.344727 2075.704590,856.482727 2078.544434,854.429504 
	C2111.754883,830.417908 2145.789062,807.737061 2182.776611,789.822937 
	C2199.891357,781.533691 2217.388672,773.878235 2236.255127,771.085876 
	C2247.667725,769.396729 2259.698975,768.844543 2271.052002,770.510742 
	C2288.176758,773.024048 2299.016357,784.843201 2306.084473,800.194641 
	C2308.280762,804.965088 2310.402100,809.770142 2313.278809,814.279663 
	C2314.000000,840.708435 2314.000000,867.416931 2313.445801,895.328369 
	C2313.261230,897.687622 2313.630615,898.843811 2314.000000,900.000000 
	C2314.000000,904.741150 2314.000000,909.482239 2313.203125,914.850098 
	C2311.673584,917.210266 2310.641846,918.879639 2310.254150,920.687073 
	C2306.492920,938.220032 2304.059814,956.142090 2298.926514,973.256958 
	C2283.802002,1023.684387 2264.057617,1072.338135 2239.689941,1119.066895 
	C2218.743408,1159.235107 2195.697998,1198.115479 2170.413330,1235.742432 
	C2129.601318,1296.476196 2080.134033,1348.964722 2022.424561,1393.769287 
	C1994.267944,1415.629517 1964.753052,1435.514160 1933.677002,1453.022461 
	C1928.782837,1455.779663 1925.847168,1458.756226 1925.467163,1465.284912 
	C1924.408203,1483.473267 1921.842651,1501.567505 1920.344238,1519.737915 
	C1917.359863,1555.931519 1910.291382,1591.395020 1901.964478,1626.658447 
	C1890.943115,1673.331909 1877.770996,1719.333618 1857.523682,1762.959717 
	C1844.788330,1790.400024 1831.912842,1817.815918 1817.875244,1844.600830 
	C1800.079468,1878.556274 1777.876221,1909.785645 1755.609131,1940.947632 
	C1731.199707,1975.107666 1704.713745,2007.563721 1675.102173,2037.238403 
	C1652.813232,2059.574951 1629.339600,2080.794922 1605.587646,2101.591797 
	C1566.020874,2136.236084 1523.945068,2167.620605 1480.172241,2196.845947 
	C1426.059326,2232.975098 1369.493286,2264.532959 1310.520020,2291.927246 
	C1270.009644,2310.745605 1228.383911,2326.429688 1185.267578,2338.152588 
	C1182.528687,2338.897217 1180.074219,2340.688232 1176.844482,2341.604492 
	C1173.646729,2340.912354 1171.000366,2340.020996 1168.553101,2340.403809 
	C1157.166016,2342.184814 1145.801270,2344.154541 1134.500977,2346.418213 
	C1130.761597,2347.167480 1127.239136,2348.999756 1122.745605,2350.175781 
	C1114.674438,2350.581787 1107.479858,2351.557617 1100.274780,2351.642822 
	C1074.859375,2351.943359 1049.440430,2351.938477 1023.245972,2351.756836 
	C1003.594788,2349.650146 984.720398,2347.836426 965.039429,2345.957031 
	C961.972046,2345.374268 959.722290,2344.802246 957.448730,2344.349854 
	C928.481018,2338.584717 899.325806,2333.626953 870.575989,2326.928711 
	C800.020935,2310.490723 732.938416,2284.254395 667.877197,2252.712158 
	C619.644165,2229.328613 573.561279,2202.078369 527.855347,2174.156250 
	C490.752045,2151.489502 458.102448,2123.234375 427.014282,2093.205322 
	C413.221130,2079.882080 400.945740,2064.882568 388.813538,2049.967041 
	C365.650940,2021.491089 344.912781,1991.275879 331.473358,1956.899292 
	C319.624359,1926.591064 309.175232,1895.734131 298.203583,1865.085327 
	C295.985474,1858.889038 294.195862,1852.539429 292.178894,1845.493408 
	C293.398743,1841.333984 294.379944,1837.812256 295.941071,1834.569702 
	C306.765106,1812.087769 317.788666,1789.701660 328.583069,1767.205566 
	C334.140320,1755.624146 339.358398,1743.880127 345.018799,1731.581299 
	C348.792725,1734.030273 351.667053,1735.655640 354.279449,1737.628174 
	C376.854126,1754.672729 399.379333,1771.782837 421.924164,1788.866821 
	C433.063965,1797.308350 443.969666,1806.087036 455.429352,1814.069946 
	C466.604919,1821.854858 478.029083,1819.457031 485.835724,1808.318481 
	C488.496490,1804.521973 490.956451,1800.461426 492.752197,1796.202759 
	C501.282135,1775.972778 509.623627,1755.662354 517.897949,1735.325928 
	C534.323059,1694.956787 550.642090,1654.544556 567.069824,1614.176636 
	C568.288269,1611.182617 570.026367,1608.400024 571.779419,1605.025391 
	C574.892029,1606.061157 577.416504,1606.686646 579.761719,1607.719238 
	C588.899902,1611.743164 597.842346,1616.245117 607.109924,1619.935425 
	C634.305176,1630.764648 661.634094,1641.257568 688.884583,1651.948486 
	C702.203064,1657.173340 715.341431,1662.882080 728.780396,1667.769409 
	C747.191467,1674.464722 760.171936,1667.847412 766.021179,1649.343506 
	C766.919373,1646.501953 767.775635,1643.575317 768.077148,1640.629272 
	C769.428833,1627.421753 770.935669,1614.213867 771.702393,1600.966675 
	C772.720642,1583.373901 772.892151,1565.733276 773.809082,1548.133179 
	C775.106140,1523.236328 776.737610,1498.356812 778.282104,1473.473389 
	C778.379761,1471.899902 778.961060,1470.356445 779.604614,1467.543335 
	C789.400513,1468.315796 798.940735,1468.862549 808.433167,1469.863403 
	C823.947449,1471.499146 839.395752,1473.856079 854.935913,1475.124512 
	C872.475159,1476.556274 890.096680,1478.032715 907.661255,1477.811890 
	C925.941589,1477.582031 936.891846,1464.526733 935.696167,1446.134155 
	C935.291199,1439.903687 934.006470,1433.559082 932.027893,1427.632324 
	C924.236267,1404.292847 916.163391,1381.043823 907.889099,1357.870239 
	C902.202271,1341.943481 896.011292,1326.196777 889.829834,1309.796753 
	C895.168213,1305.865479 899.983459,1301.780396 905.295227,1298.498657 
	C932.475342,1281.706299 959.738342,1265.046021 987.092346,1248.538574 
	C991.566101,1245.838745 996.639343,1244.132202 1001.435547,1241.966675 
M1206.257446,1949.460449 
	C1209.421997,1950.968628 1212.444458,1953.239746 1215.774170,1953.859619 
	C1235.259033,1957.486694 1254.759033,1961.117798 1274.367676,1963.964722 
	C1288.089722,1965.957031 1301.971313,1967.432617 1315.820435,1967.849731 
	C1346.024536,1968.759399 1376.030762,1966.700562 1406.041138,1962.363647 
	C1437.309814,1957.844727 1467.916748,1950.894775 1497.972778,1941.609131 
	C1541.262085,1928.234985 1582.789673,1910.581787 1621.700684,1887.145020 
	C1651.391846,1869.261353 1679.589966,1849.527344 1701.174438,1821.785767 
	C1713.048828,1806.524048 1720.940552,1789.452637 1721.848511,1769.994263 
	C1722.807861,1749.431763 1714.962524,1731.737183 1701.436646,1716.525513 
	C1697.015991,1711.553955 1691.927002,1707.182251 1687.392578,1702.304810 
	C1682.518311,1697.061890 1682.598633,1692.768433 1687.549438,1687.546631 
	C1689.584106,1685.400635 1691.992065,1683.562012 1694.409302,1681.834229 
	C1701.155029,1677.012573 1708.395264,1672.798584 1714.715210,1667.483032 
	C1729.079224,1655.401733 1742.183838,1642.329956 1746.647217,1622.935181 
	C1751.647949,1601.205566 1745.834839,1582.430176 1729.994019,1567.649780 
	C1719.307129,1557.678467 1705.797852,1551.536377 1691.353638,1547.827515 
	C1683.658325,1545.851440 1676.070801,1543.216064 1668.734741,1540.158203 
	C1663.172729,1537.839844 1662.536011,1533.690674 1666.204224,1528.940796 
	C1667.417114,1527.370361 1668.850708,1525.907104 1670.404785,1524.673706 
	C1681.817505,1515.615845 1693.551270,1506.942383 1704.675659,1497.546143 
	C1721.667847,1483.193848 1735.373413,1466.283813 1742.619141,1444.836182 
	C1746.525269,1433.274170 1747.542969,1421.431396 1744.738647,1409.541260 
	C1737.515381,1378.914673 1717.279785,1359.322998 1689.547974,1346.986816 
	C1665.612671,1336.339478 1639.831299,1332.946411 1613.978638,1332.266479 
	C1591.440063,1331.673828 1568.837158,1333.212158 1546.273071,1334.083008 
	C1538.349976,1334.388550 1530.418213,1335.220947 1522.560425,1336.315674 
	C1505.551880,1338.685425 1488.582275,1341.339478 1471.608398,1343.952881 
	C1454.302124,1346.617432 1436.996826,1349.296997 1419.734863,1352.227539 
	C1418.314453,1352.468506 1417.229004,1354.682861 1414.267456,1355.984497 
	C1394.626099,1358.693848 1374.900146,1360.906128 1355.363159,1364.229126 
	C1326.025513,1369.219116 1296.674438,1374.312256 1267.595581,1380.595215 
	C1231.022583,1388.497314 1194.561279,1397.035645 1158.335815,1406.398560 
	C1106.785767,1419.721924 1056.369873,1436.224243 1009.838806,1462.990112 
	C972.972961,1484.196167 943.436401,1512.468262 923.028259,1549.971191 
	C901.544678,1589.450562 891.582642,1632.199707 888.213135,1676.572632 
	C886.884094,1694.075073 888.140442,1711.615234 891.697998,1729.059326 
	C899.894287,1769.247437 917.966980,1804.133667 946.579773,1833.305664 
	C958.638550,1845.599976 972.049927,1856.577881 984.967407,1868.017578 
	C1009.952942,1890.145020 1039.607544,1904.598999 1069.849243,1917.466431 
	C1113.227783,1935.923340 1159.356689,1943.394531 1206.257446,1949.460449 
z"/>
<path fill="#000000" opacity="1.000000" stroke="none" 
	d="
M1177.487549,2341.992432 
	C1180.074219,2340.688232 1182.528687,2338.897217 1185.267578,2338.152588 
	C1228.383911,2326.429688 1270.009644,2310.745605 1310.520020,2291.927246 
	C1369.493286,2264.532959 1426.059326,2232.975098 1480.172241,2196.845947 
	C1523.945068,2167.620605 1566.020874,2136.236084 1605.587646,2101.591797 
	C1629.339600,2080.794922 1652.813232,2059.574951 1675.102173,2037.238403 
	C1704.713745,2007.563721 1731.199707,1975.107666 1755.609131,1940.947632 
	C1777.876221,1909.785645 1800.079468,1878.556274 1817.875244,1844.600830 
	C1831.912842,1817.815918 1844.788330,1790.400024 1857.523682,1762.959717 
	C1877.770996,1719.333618 1890.943115,1673.331909 1901.964478,1626.658447 
	C1910.291382,1591.395020 1917.359863,1555.931519 1920.344238,1519.737915 
	C1921.842651,1501.567505 1924.408203,1483.473267 1925.467163,1465.284912 
	C1925.847168,1458.756226 1928.782837,1455.779663 1933.677002,1453.022461 
	C1964.753052,1435.514160 1994.267944,1415.629517 2022.424561,1393.769287 
	C2080.134033,1348.964722 2129.601318,1296.476196 2170.413330,1235.742432 
	C2195.697998,1198.115479 2218.743408,1159.235107 2239.689941,1119.066895 
	C2264.057617,1072.338135 2283.802002,1023.684387 2298.926514,973.256958 
	C2304.059814,956.142090 2306.492920,938.220032 2310.254150,920.687073 
	C2310.641846,918.879639 2311.673584,917.210266 2313.203125,915.738403 
	C2314.000000,1296.041748 2314.000000,1676.083496 2313.073486,2057.215088 
	C2225.591553,2058.304932 2139.035889,2058.304932 2051.665771,2058.304932 
	C2051.665771,2063.261475 2051.665771,2067.189697 2051.665771,2071.117676 
	C2051.665771,2319.087158 2051.664307,2567.056885 2051.679443,2815.026367 
	C2051.679688,2818.684326 2051.888428,2822.342041 2052.000000,2826.000000 
	C1731.958252,2826.000000 1411.916382,2826.000000 1090.405762,2825.417480 
	C1098.512085,2816.558105 1107.671387,2807.906250 1114.260864,2796.917969 
	C1123.326782,2781.800537 1132.674927,2766.844238 1141.406494,2751.536377 
	C1150.236206,2736.056152 1158.461548,2720.231445 1167.597534,2703.364990 
	C1169.782959,2708.691406 1171.573608,2712.927002 1173.265625,2717.201660 
	C1182.436768,2740.369629 1191.382690,2763.629883 1200.825073,2786.686523 
	C1205.397461,2797.851318 1211.345947,2808.629639 1222.061401,2814.949463 
	C1234.862671,2822.499756 1252.351196,2820.028076 1257.155029,2800.781982 
	C1257.630737,2798.876465 1257.866821,2796.784180 1257.630493,2794.849609 
	C1256.427124,2785.000488 1256.274780,2774.800049 1253.446777,2765.418457 
	C1247.411011,2745.396729 1240.033325,2725.774902 1233.039185,2706.048340 
	C1230.276611,2698.256836 1229.308105,2690.449707 1230.350098,2681.441650 
	C1242.848145,2688.747070 1254.393677,2695.234619 1265.670410,2702.160400 
	C1276.983521,2709.108398 1288.089233,2716.401123 1299.170166,2723.718018 
	C1307.223022,2729.035400 1314.757446,2735.218018 1323.115479,2739.973633 
	C1334.634888,2746.527832 1346.405884,2752.753174 1360.436035,2752.400146 
	C1375.211426,2752.028076 1383.640503,2743.731445 1383.693481,2728.796387 
	C1383.736938,2716.563232 1377.465576,2707.242676 1369.471313,2698.979736 
	C1351.760742,2680.674561 1331.269775,2665.962646 1308.991211,2653.754639 
	C1279.474121,2637.579590 1250.669678,2620.452148 1226.756592,2596.255615 
	C1220.856812,2590.285889 1215.303467,2584.243652 1212.747070,2575.969727 
	C1206.256226,2554.962646 1202.036865,2533.513428 1199.674438,2511.665527 
	C1197.643066,2492.880371 1195.714844,2474.076660 1193.213013,2455.351318 
	C1188.160889,2417.539795 1182.750244,2379.775879 1177.487549,2341.992432 
z"/>
<path fill="#000000" opacity="1.000000" stroke="none" 
	d="
M1024.022827,2352.049805 
	C1049.440430,2351.938477 1074.859375,2351.943359 1100.274780,2351.642822 
	C1107.479858,2351.557617 1114.674438,2350.581787 1122.766968,2351.060547 
	C1123.698608,2353.769531 1123.613403,2355.446533 1123.793579,2357.094482 
	C1127.718384,2392.974609 1131.994507,2428.819580 1135.525391,2464.738281 
	C1138.668701,2496.713379 1141.033691,2528.766113 1143.654297,2560.791748 
	C1144.438477,2570.374268 1144.766357,2579.994385 1145.582275,2589.573486 
	C1147.614502,2613.427490 1146.510864,2636.474365 1133.510742,2657.882080 
	C1117.651245,2683.998779 1102.801636,2710.726562 1087.324707,2737.077881 
	C1077.058105,2754.557861 1065.994507,2771.674072 1059.715576,2791.095947 
	C1056.178223,2802.037842 1054.929443,2813.312500 1063.990356,2822.925293 
	C1064.503540,2823.469482 1064.019775,2824.953369 1064.000000,2826.000000 
	C710.102173,2826.000000 356.204285,2826.000000 2.000000,2826.000000 
	C2.000000,2170.625000 2.000000,1515.249756 2.789264,858.867920 
	C4.323948,859.925964 5.392956,861.934448 5.763950,864.064392 
	C8.919346,882.180908 13.622004,900.063721 23.404644,915.566833 
	C48.945728,956.043396 88.005730,972.957031 133.887772,968.925049 
	C172.495697,965.532349 204.810364,945.979309 228.958679,914.617310 
	C231.550507,911.251221 234.628784,908.259705 237.038467,905.944214 
	C230.092148,936.288574 223.895523,965.854919 217.012772,995.260681 
	C206.948700,1038.258179 195.847092,1081.018188 186.175491,1124.101074 
	C172.151443,1186.572266 158.501801,1249.130981 149.219116,1312.557251 
	C143.879807,1349.039551 140.525101,1385.652832 139.725998,1422.488403 
	C138.946686,1458.411499 141.362610,1494.230469 144.086166,1530.023315 
	C144.866241,1540.274902 145.480713,1550.558716 146.808136,1560.744873 
	C149.721161,1583.098389 152.764755,1605.442627 156.268997,1627.709595 
	C160.187302,1652.607788 164.181564,1677.512817 169.018250,1702.243652 
	C178.420624,1750.319946 194.954132,1796.361084 210.418350,1842.675659 
	C214.618469,1855.254883 219.506210,1867.687622 225.166458,1879.673584 
	C231.153824,1892.352051 242.216431,1896.782349 254.959793,1891.804443 
	C259.934814,1889.861084 264.842651,1885.953369 268.061188,1881.653076 
	C276.610687,1870.229980 284.223419,1858.105835 292.208679,1846.260498 
	C294.195862,1852.539429 295.985474,1858.889038 298.203583,1865.085327 
	C309.175232,1895.734131 319.624359,1926.591064 331.473358,1956.899292 
	C344.912781,1991.275879 365.650940,2021.491089 388.813538,2049.967041 
	C400.945740,2064.882568 413.221130,2079.882080 427.014282,2093.205322 
	C458.102448,2123.234375 490.752045,2151.489502 527.855347,2174.156250 
	C573.561279,2202.078369 619.644165,2229.328613 667.877197,2252.712158 
	C732.938416,2284.254395 800.020935,2310.490723 870.575989,2326.928711 
	C899.325806,2333.626953 928.481018,2338.584717 957.448730,2344.349854 
	C959.722290,2344.802246 961.972046,2345.374268 964.775879,2346.644531 
	C957.512695,2367.118408 949.963684,2386.945312 941.833191,2406.531006 
	C932.279724,2429.544434 921.814270,2452.184570 912.516113,2475.297119 
	C905.573364,2492.554688 900.224426,2510.447998 893.493286,2527.797607 
	C886.064697,2546.944824 875.971191,2564.473389 858.618652,2576.601074 
	C849.343323,2583.083496 840.257507,2589.997314 830.377686,2595.427246 
	C792.795959,2616.081787 754.901672,2636.166748 717.179443,2656.566650 
	C706.949036,2662.098877 696.573669,2667.475830 686.886719,2673.866943 
	C677.974304,2679.747070 670.179565,2687.174072 666.871338,2697.934326 
	C661.405151,2715.713623 672.564941,2728.795410 687.816406,2727.944580 
	C698.417725,2727.353516 708.226990,2724.951172 717.485474,2720.385986 
	C752.649536,2703.048340 787.665161,2685.409668 822.743713,2667.898193 
	C825.536987,2666.503906 828.385986,2665.221191 832.642456,2663.208740 
	C831.620178,2666.661621 831.179871,2668.510010 830.531982,2670.282471 
	C823.683960,2689.014893 816.530457,2707.640869 810.024048,2726.490723 
	C805.478516,2739.659668 801.133667,2752.955078 802.262329,2767.322266 
	C803.283630,2780.323486 811.222046,2787.848389 823.872375,2788.458740 
	C833.564758,2788.926514 840.286560,2784.508545 846.283386,2777.773682 
	C858.828247,2763.685059 867.279114,2747.031982 875.570618,2730.371338 
	C883.926636,2713.581299 891.470825,2696.386963 899.941895,2678.139404 
	C901.221619,2681.980713 902.219116,2684.697266 903.035583,2687.467773 
	C911.692566,2716.840088 921.430847,2745.782227 935.319336,2773.208496 
	C942.110535,2786.619385 951.703369,2797.550293 963.915588,2805.865234 
	C978.105347,2815.526611 994.564819,2809.293701 997.814087,2792.616943 
	C999.744141,2782.710693 1000.523254,2771.813965 998.489197,2762.056885 
	C993.893188,2740.010010 987.914001,2718.181396 981.217773,2696.662109 
	C974.408264,2674.779053 965.707947,2653.490723 958.537781,2631.710938 
	C954.811401,2620.391357 950.929871,2608.695068 950.074585,2596.953369 
	C948.571350,2576.315918 951.802917,2555.879150 958.959595,2536.274170 
	C965.226440,2519.106934 971.660950,2502.000488 977.910950,2484.827148 
	C993.935547,2440.795654 1011.056702,2397.143555 1024.022827,2352.049805 
z"/>
<path fill="#000000" opacity="1.000000" stroke="none" 
	d="
M1.999994,822.000000 
	C2.000000,548.821716 2.000000,275.643463 2.000000,2.000000 
	C236.045090,2.000000 470.090485,2.000000 705.384949,2.761263 
	C704.876587,4.299303 703.180298,5.285567 701.351929,5.819447 
	C687.663757,9.816381 673.710144,13.045709 660.286255,17.781433 
	C611.950317,34.833580 572.377197,65.460541 535.508911,99.977638 
	C514.862976,119.306946 496.329712,140.629791 478.204834,162.324234 
	C450.002686,196.080597 424.359955,231.610428 402.990112,270.099915 
	C392.346100,289.270996 382.227081,308.733551 371.204315,327.826904 
	C359.341492,322.615692 348.271515,317.328491 336.919098,312.739990 
	C319.122192,305.546753 301.175201,298.692780 281.492615,295.261963 
	C229.313019,284.830566 160.399490,276.969757 148.134720,279.612274 
	C145.947296,290.656769 152.210754,298.701782 158.137253,306.702454 
	C182.278717,339.293060 206.126663,372.048004 221.830658,410.646118 
	C231.556076,435.907715 239.590897,460.895508 244.320190,487.500427 
	C236.612808,501.815155 229.901428,515.975281 221.410934,528.973328 
	C199.706161,562.200867 172.870926,591.347290 146.056885,620.414917 
	C123.756401,644.589600 100.394028,667.801147 78.497391,692.328003 
	C45.446842,729.348450 18.122248,769.919739 5.638824,818.926331 
	C5.319842,820.178589 3.252137,820.985413 1.999994,822.000000 
z"/>
<path fill="#DA3122" opacity="1.000000" stroke="none" 
	d="
M371.870544,328.064240 
	C382.227081,308.733551 392.346100,289.270996 402.990112,270.099915 
	C424.359955,231.610428 450.002686,196.080597 478.204834,162.324234 
	C496.329712,140.629791 514.862976,119.306946 535.508911,99.977638 
	C572.377197,65.460541 611.950317,34.833580 660.286255,17.781433 
	C673.710144,13.045709 687.663757,9.816381 701.351929,5.819447 
	C703.180298,5.285567 704.876587,4.299303 706.317017,2.761263 
	C726.041809,2.000000 746.083557,2.000000 767.062744,1.999993 
	C768.520203,3.177517 768.750488,5.054495 769.610962,5.411157 
	C773.283691,6.933569 777.124634,8.065966 780.936829,9.234198 
	C803.778809,16.234087 815.458618,32.637642 820.268982,55.186977 
	C825.088440,77.778526 818.065613,97.942734 807.773071,117.313118 
	C803.143799,126.025269 797.192383,134.034866 791.164673,143.415756 
	C798.845764,143.415756 805.559814,143.420792 812.273865,143.414764 
	C828.512695,143.400177 844.810059,142.516678 860.973267,143.613663 
	C876.136841,144.642838 891.385193,146.783524 906.186218,150.207687 
	C925.673462,154.715988 944.735168,161.209320 960.031982,174.993118 
	C974.898193,188.388824 985.111633,204.300858 984.288147,225.378159 
	C983.675476,241.060226 978.171692,254.517502 966.167175,264.984802 
	C952.138306,277.217163 935.386780,284.565125 918.423950,291.522400 
	C916.278748,292.402252 914.066284,293.118622 911.924194,294.005463 
	C911.394775,294.224609 911.018982,294.814941 909.960205,295.810272 
	C916.817993,301.660339 923.857117,307.100616 930.252319,313.214508 
	C964.712891,346.159058 988.030212,385.134277 993.532471,433.288971 
	C996.195129,456.591888 992.690857,479.247192 982.272095,500.298584 
	C970.432556,524.220581 949.421143,535.201599 923.861328,538.213379 
	C886.681213,542.594299 851.976196,532.364868 818.586975,517.829773 
	C783.225403,502.436096 748.595093,485.363068 713.639221,469.036743 
	C672.356995,449.755615 631.095825,430.301544 587.984375,415.452576 
	C554.076843,403.773743 519.594727,393.717560 483.958405,388.421875 
	C481.994080,388.129944 479.968231,388.252136 476.422424,387.995667 
	C472.487000,386.671478 469.852753,385.873108 467.750824,384.343353 
	C440.484253,364.499023 411.307343,348.004700 380.631042,334.064148 
	C377.457397,332.621918 374.778809,330.090332 371.870544,328.064240 
z"/>
<path fill="#FFFFFF" opacity="1.000000" stroke="none" 
	d="
M2052.937256,2826.000000 
	C2051.888428,2822.342041 2051.679688,2818.684326 2051.679443,2815.026367 
	C2051.664307,2567.056885 2051.665771,2319.087158 2051.665771,2071.117676 
	C2051.665771,2067.189697 2051.665771,2063.261475 2051.665771,2058.304932 
	C2139.035889,2058.304932 2225.591553,2058.304932 2313.073486,2058.152344 
	C2314.000000,2313.782471 2314.000000,2569.564941 2314.000000,2826.000000 
	C2227.292480,2826.000000 2140.583496,2826.000000 2052.937256,2826.000000 
z"/>
<path fill="#DA3122" opacity="1.000000" stroke="none" 
	d="
M1.999994,822.935913 
	C3.252137,820.985413 5.319842,820.178589 5.638824,818.926331 
	C18.122248,769.919739 45.446842,729.348450 78.497391,692.328003 
	C100.394028,667.801147 123.756401,644.589600 146.056885,620.414917 
	C172.870926,591.347290 199.706161,562.200867 221.410934,528.973328 
	C229.901428,515.975281 236.612808,501.815155 244.830170,487.909363 
	C246.228149,489.849487 247.136856,492.022186 247.602280,494.286011 
	C257.128876,540.623047 262.265747,587.524353 263.396027,634.740662 
	C264.080292,663.325012 262.466034,691.970886 261.630493,720.581726 
	C261.320129,731.208191 260.621826,741.848694 259.516479,752.421753 
	C256.477173,781.493469 253.766251,810.622559 249.694809,839.555725 
	C246.601273,861.539551 241.621765,883.257996 237.481415,905.094482 
	C234.628784,908.259705 231.550507,911.251221 228.958679,914.617310 
	C204.810364,945.979309 172.495697,965.532349 133.887772,968.925049 
	C88.005730,972.957031 48.945728,956.043396 23.404644,915.566833 
	C13.622004,900.063721 8.919346,882.180908 5.763950,864.064392 
	C5.392956,861.934448 4.323948,859.925964 2.789264,857.930603 
	C2.000000,846.623901 2.000000,835.247864 1.999994,822.935913 
z"/>
<path fill="#EC9836" opacity="1.000000" stroke="none" 
	d="
M1064.926514,2826.000000 
	C1064.019775,2824.953369 1064.503540,2823.469482 1063.990356,2822.925293 
	C1054.929443,2813.312500 1056.178223,2802.037842 1059.715576,2791.095947 
	C1065.994507,2771.674072 1077.058105,2754.557861 1087.324707,2737.077881 
	C1102.801636,2710.726562 1117.651245,2683.998779 1133.510742,2657.882080 
	C1146.510864,2636.474365 1147.614502,2613.427490 1145.582275,2589.573486 
	C1144.766357,2579.994385 1144.438477,2570.374268 1143.654297,2560.791748 
	C1141.033691,2528.766113 1138.668701,2496.713379 1135.525391,2464.738281 
	C1131.994507,2428.819580 1127.718384,2392.974609 1123.793579,2357.094482 
	C1123.613403,2355.446533 1123.698608,2353.769531 1123.638794,2351.221436 
	C1127.239136,2348.999756 1130.761597,2347.167480 1134.500977,2346.418213 
	C1145.801270,2344.154541 1157.166016,2342.184814 1168.553101,2340.403809 
	C1171.000366,2340.020996 1173.646729,2340.912354 1176.844482,2341.604492 
	C1182.750244,2379.775879 1188.160889,2417.539795 1193.213013,2455.351318 
	C1195.714844,2474.076660 1197.643066,2492.880371 1199.674438,2511.665527 
	C1202.036865,2533.513428 1206.256226,2554.962646 1212.747070,2575.969727 
	C1215.303467,2584.243652 1220.856812,2590.285889 1226.756592,2596.255615 
	C1250.669678,2620.452148 1279.474121,2637.579590 1308.991211,2653.754639 
	C1331.269775,2665.962646 1351.760742,2680.674561 1369.471313,2698.979736 
	C1377.465576,2707.242676 1383.736938,2716.563232 1383.693481,2728.796387 
	C1383.640503,2743.731445 1375.211426,2752.028076 1360.436035,2752.400146 
	C1346.405884,2752.753174 1334.634888,2746.527832 1323.115479,2739.973633 
	C1314.757446,2735.218018 1307.223022,2729.035400 1299.170166,2723.718018 
	C1288.089233,2716.401123 1276.983521,2709.108398 1265.670410,2702.160400 
	C1254.393677,2695.234619 1242.848145,2688.747070 1230.350098,2681.441650 
	C1229.308105,2690.449707 1230.276611,2698.256836 1233.039185,2706.048340 
	C1240.033325,2725.774902 1247.411011,2745.396729 1253.446777,2765.418457 
	C1256.274780,2774.800049 1256.427124,2785.000488 1257.630493,2794.849609 
	C1257.866821,2796.784180 1257.630737,2798.876465 1257.155029,2800.781982 
	C1252.351196,2820.028076 1234.862671,2822.499756 1222.061401,2814.949463 
	C1211.345947,2808.629639 1205.397461,2797.851318 1200.825073,2786.686523 
	C1191.382690,2763.629883 1182.436768,2740.369629 1173.265625,2717.201660 
	C1171.573608,2712.927002 1169.782959,2708.691406 1167.597534,2703.364990 
	C1158.461548,2720.231445 1150.236206,2736.056152 1141.406494,2751.536377 
	C1132.674927,2766.844238 1123.326782,2781.800537 1114.260864,2796.917969 
	C1107.671387,2807.906250 1098.512085,2816.558105 1089.468506,2825.417480 
	C1081.950928,2826.000000 1073.901855,2826.000000 1064.926514,2826.000000 
z"/>
<path fill="#000000" opacity="1.000000" stroke="none" 
	d="
M2314.000000,899.333374 
	C2313.630615,898.843811 2313.261230,897.687622 2313.445801,896.265747 
	C2314.000000,896.888916 2314.000000,897.777771 2314.000000,899.333374 
z"/>
<path fill="#F7D14A" opacity="1.000000" stroke="none" 
	d="
M237.038452,905.944214 
	C241.621765,883.257996 246.601273,861.539551 249.694809,839.555725 
	C253.766251,810.622559 256.477173,781.493469 259.516479,752.421753 
	C260.621826,741.848694 261.320129,731.208191 261.630493,720.581726 
	C262.466034,691.970886 264.080292,663.325012 263.396027,634.740662 
	C262.265747,587.524353 257.128876,540.623047 247.602280,494.286011 
	C247.136856,492.022186 246.228149,489.849487 245.015854,487.225464 
	C239.590897,460.895508 231.556076,435.907715 222.007294,409.990082 
	C227.366333,402.722931 232.673111,396.867554 237.955307,390.990082 
	C251.608124,375.798737 262.646454,358.944702 269.065765,339.469177 
	C273.815552,325.058807 277.737213,310.375519 282.027832,295.813812 
	C301.175201,298.692780 319.122192,305.546753 336.919098,312.739990 
	C348.271515,317.328491 359.341492,322.615692 371.204285,327.826904 
	C374.778809,330.090332 377.457397,332.621918 380.631042,334.064148 
	C411.307343,348.004700 440.484253,364.499023 467.750824,384.343353 
	C469.852753,385.873108 472.487000,386.671478 475.591766,387.931824 
	C488.145538,398.157837 500.663849,407.577057 511.653168,418.530304 
	C527.143433,433.969727 542.572388,449.695129 556.144104,466.793274 
	C598.137085,519.697571 624.606018,580.259277 642.025879,645.194336 
	C651.869324,681.887268 657.960205,719.044861 660.477905,756.931641 
	C662.565857,788.352844 665.872314,819.690918 668.298767,851.092102 
	C672.228821,901.950562 684.499573,950.552185 707.053101,996.400818 
	C729.248901,1041.522095 762.341187,1076.313721 805.537231,1102.168823 
	C844.954895,1125.762207 887.265991,1142.131836 930.880066,1155.563354 
	C956.259888,1163.379517 981.921326,1170.280640 1007.307495,1178.077637 
	C1013.197998,1179.886719 1019.103210,1182.884766 1023.924683,1186.697632 
	C1036.479004,1196.625854 1037.421997,1216.286255 1023.041260,1227.102417 
	C1016.414917,1232.086182 1009.167969,1236.244751 1001.818970,1241.372070 
	C996.639343,1244.132202 991.566101,1245.838745 987.092346,1248.538574 
	C959.738342,1265.046021 932.475342,1281.706299 905.295227,1298.498657 
	C899.983459,1301.780396 895.168213,1305.865479 889.829834,1309.796753 
	C896.011292,1326.196777 902.202271,1341.943481 907.889099,1357.870239 
	C916.163391,1381.043823 924.236267,1404.292847 932.027893,1427.632324 
	C934.006470,1433.559082 935.291199,1439.903687 935.696167,1446.134155 
	C936.891846,1464.526733 925.941589,1477.582031 907.661255,1477.811890 
	C890.096680,1478.032715 872.475159,1476.556274 854.935913,1475.124512 
	C839.395752,1473.856079 823.947449,1471.499146 808.433167,1469.863403 
	C798.940735,1468.862549 789.400513,1468.315796 779.604614,1467.543335 
	C778.961060,1470.356445 778.379761,1471.899902 778.282104,1473.473389 
	C776.737610,1498.356812 775.106140,1523.236328 773.809082,1548.133179 
	C772.892151,1565.733276 772.720642,1583.373901 771.702393,1600.966675 
	C770.935669,1614.213867 769.428833,1627.421753 768.077148,1640.629272 
	C767.775635,1643.575317 766.919373,1646.501953 766.021179,1649.343506 
	C760.171936,1667.847412 747.191467,1674.464722 728.780396,1667.769409 
	C715.341431,1662.882080 702.203064,1657.173340 688.884583,1651.948486 
	C661.634094,1641.257568 634.305176,1630.764648 607.109924,1619.935425 
	C597.842346,1616.245117 588.899902,1611.743164 579.761719,1607.719238 
	C577.416504,1606.686646 574.892029,1606.061157 571.779419,1605.025391 
	C570.026367,1608.400024 568.288269,1611.182617 567.069824,1614.176636 
	C550.642090,1654.544556 534.323059,1694.956787 517.897949,1735.325928 
	C509.623627,1755.662354 501.282135,1775.972778 492.752197,1796.202759 
	C490.956451,1800.461426 488.496490,1804.521973 485.835724,1808.318481 
	C478.029083,1819.457031 466.604919,1821.854858 455.429352,1814.069946 
	C443.969666,1806.087036 433.063965,1797.308350 421.924164,1788.866821 
	C399.379333,1771.782837 376.854126,1754.672729 354.279449,1737.628174 
	C351.667053,1735.655640 348.792725,1734.030273 345.018799,1731.581299 
	C339.358398,1743.880127 334.140320,1755.624146 328.583069,1767.205566 
	C317.788666,1789.701660 306.765106,1812.087769 295.941071,1834.569702 
	C294.379944,1837.812256 293.398743,1841.333984 292.178955,1845.493408 
	C284.223419,1858.105835 276.610687,1870.229980 268.061188,1881.653076 
	C264.842651,1885.953369 259.934814,1889.861084 254.959793,1891.804443 
	C242.216431,1896.782349 231.153824,1892.352051 225.166458,1879.673584 
	C219.506210,1867.687622 214.618469,1855.254883 210.418350,1842.675659 
	C194.954132,1796.361084 178.420624,1750.319946 169.018250,1702.243652 
	C164.181564,1677.512817 160.187302,1652.607788 156.268997,1627.709595 
	C152.764755,1605.442627 149.721161,1583.098389 146.808136,1560.744873 
	C145.480713,1550.558716 144.866241,1540.274902 144.086166,1530.023315 
	C141.362610,1494.230469 138.946686,1458.411499 139.725998,1422.488403 
	C140.525101,1385.652832 143.879807,1349.039551 149.219116,1312.557251 
	C158.501801,1249.130981 172.151443,1186.572266 186.175491,1124.101074 
	C195.847092,1081.018188 206.948700,1038.258179 217.012772,995.260681 
	C223.895523,965.854919 230.092148,936.288574 237.038452,905.944214 
M431.544403,483.738922 
	C432.815735,490.911377 429.926575,495.918488 423.743439,499.503082 
	C421.481689,500.814270 419.430817,502.668976 417.664032,504.620087 
	C412.646790,510.160706 412.049561,516.712524 414.980133,523.235291 
	C417.980103,529.912415 423.778625,533.141418 431.059479,533.019897 
	C433.993683,532.970886 437.019684,532.186035 439.817871,531.205261 
	C464.102570,522.693665 482.197449,493.421021 478.915131,467.728546 
	C475.393005,440.158783 459.809479,421.616699 435.022308,410.230957 
	C411.776764,399.553436 389.590698,401.837463 369.007202,416.734650 
	C352.495972,428.684540 341.944336,445.173248 336.784821,464.715790 
	C332.584534,480.625305 336.124878,495.127502 348.154724,506.939972 
	C355.409790,514.063904 363.835663,515.380798 371.850159,510.950165 
	C380.558075,506.136230 384.525513,497.970764 383.137878,488.517639 
	C382.516052,484.281647 381.898804,479.876770 382.387299,475.677399 
	C383.886536,462.788422 393.951477,455.659058 406.603119,458.889343 
	C418.896210,462.028107 428.337830,468.839966 431.544403,483.738922 
M481.809540,593.069763 
	C463.133209,581.025757 443.177856,574.555542 420.574951,577.809265 
	C389.385315,582.299072 374.960876,609.709534 389.818604,637.543030 
	C404.719635,665.457581 443.774628,683.731812 474.448029,679.289673 
	C485.436249,677.698364 495.791962,673.906677 503.240021,664.927490 
	C514.011658,651.941650 515.173828,635.264587 506.487610,619.238892 
	C500.830475,608.801880 492.740295,600.568665 481.809540,593.069763 
z"/>
<path fill="#A83F1A" opacity="1.000000" stroke="none" 
	d="
M1205.990234,1948.014648 
	C1159.356689,1943.394531 1113.227783,1935.923340 1069.849243,1917.466431 
	C1039.607544,1904.598999 1009.952942,1890.145020 984.967407,1868.017578 
	C972.049927,1856.577881 958.638550,1845.599976 946.579773,1833.305664 
	C917.966980,1804.133667 899.894287,1769.247437 891.697998,1729.059326 
	C888.140442,1711.615234 886.884094,1694.075073 888.213135,1676.572632 
	C891.582642,1632.199707 901.544678,1589.450562 923.028259,1549.971191 
	C943.436401,1512.468262 972.972961,1484.196167 1009.838806,1462.990112 
	C1056.369873,1436.224243 1106.785767,1419.721924 1158.335815,1406.398560 
	C1194.561279,1397.035645 1231.022583,1388.497314 1267.595581,1380.595215 
	C1296.674438,1374.312256 1326.025513,1369.219116 1355.363159,1364.229126 
	C1374.900146,1360.906128 1394.626099,1358.693848 1415.981079,1355.986450 
	C1424.895386,1355.247314 1432.088867,1354.424194 1439.298462,1353.782593 
	C1454.047607,1352.469971 1468.794312,1350.411743 1483.562622,1350.215088 
	C1501.699463,1349.973389 1519.857544,1351.320312 1538.860840,1351.985229 
	C1549.135254,1353.338135 1558.555420,1354.686157 1568.453125,1356.576294 
	C1574.612427,1358.756958 1580.294067,1360.395752 1586.388916,1362.570801 
	C1592.481323,1366.093994 1598.160400,1369.080933 1604.170776,1372.648438 
	C1608.716553,1377.488647 1612.951416,1381.728149 1617.142090,1386.010864 
	C1632.266113,1401.467651 1637.193115,1426.358398 1626.250854,1445.794434 
	C1619.801636,1457.249756 1611.823242,1467.545044 1602.276489,1476.155273 
	C1589.742065,1487.459717 1576.383667,1498.043823 1562.425537,1507.534668 
	C1536.554932,1525.125366 1509.028564,1539.981567 1480.883057,1553.656738 
	C1478.149292,1554.984741 1475.602173,1556.697266 1472.968506,1558.231323 
	C1477.348511,1559.950317 1480.953735,1560.162109 1484.525269,1559.904419 
	C1491.125244,1559.427979 1497.715698,1558.045044 1504.291870,1558.153442 
	C1527.532471,1558.536743 1550.765381,1559.391235 1574.522461,1560.617676 
	C1590.165039,1563.776245 1604.617310,1568.310791 1618.252075,1576.643066 
	C1621.630737,1579.493652 1624.706543,1581.772217 1627.908203,1584.771484 
	C1632.821289,1592.482178 1636.717285,1600.266602 1635.590088,1608.639038 
	C1633.675415,1622.860474 1627.076416,1635.226440 1615.982422,1644.618042 
	C1593.648804,1663.524170 1567.426025,1675.819824 1541.137817,1687.953125 
	C1533.847656,1691.317749 1526.545532,1694.656860 1517.473267,1698.823120 
	C1526.320068,1700.110352 1532.851074,1700.796021 1539.272583,1702.044556 
	C1558.497681,1705.782349 1576.040161,1712.575928 1590.340332,1726.995728 
	C1609.350220,1746.164795 1613.102051,1767.731445 1600.693970,1792.476074 
	C1592.203247,1809.408447 1579.162354,1822.463501 1564.768311,1834.601562 
	C1542.024292,1853.781372 1517.583252,1870.296265 1490.950806,1883.382202 
	C1471.601318,1892.889648 1451.690308,1901.254395 1431.288574,1910.173950 
	C1412.381348,1916.195923 1394.215088,1922.172607 1375.270752,1928.196777 
	C1361.005737,1931.517578 1347.518677,1934.790527 1333.213623,1938.054932 
	C1322.263672,1940.032471 1312.131836,1942.018555 1301.122314,1943.998779 
	C1290.933838,1944.773193 1281.619385,1945.517334 1272.317993,1946.397095 
	C1271.492065,1946.475220 1270.749512,1947.435059 1269.032959,1947.986938 
	C1247.395142,1947.997192 1226.692749,1948.005859 1205.990234,1948.014648 
M1469.213745,1561.021484 
	C1469.213745,1561.021484 1468.967773,1561.158447 1469.213745,1561.021484 
z"/>
<path fill="#EC9836" opacity="1.000000" stroke="none" 
	d="
M1023.245972,2351.756836 
	C1011.056702,2397.143555 993.935547,2440.795654 977.910950,2484.827148 
	C971.660950,2502.000488 965.226440,2519.106934 958.959595,2536.274170 
	C951.802917,2555.879150 948.571350,2576.315918 950.074585,2596.953369 
	C950.929871,2608.695068 954.811401,2620.391357 958.537781,2631.710938 
	C965.707947,2653.490723 974.408264,2674.779053 981.217773,2696.662109 
	C987.914001,2718.181396 993.893188,2740.010010 998.489197,2762.056885 
	C1000.523254,2771.813965 999.744141,2782.710693 997.814087,2792.616943 
	C994.564819,2809.293701 978.105347,2815.526611 963.915588,2805.865234 
	C951.703369,2797.550293 942.110535,2786.619385 935.319336,2773.208496 
	C921.430847,2745.782227 911.692566,2716.840088 903.035583,2687.467773 
	C902.219116,2684.697266 901.221619,2681.980713 899.941895,2678.139404 
	C891.470825,2696.386963 883.926636,2713.581299 875.570618,2730.371338 
	C867.279114,2747.031982 858.828247,2763.685059 846.283386,2777.773682 
	C840.286560,2784.508545 833.564758,2788.926514 823.872375,2788.458740 
	C811.222046,2787.848389 803.283630,2780.323486 802.262329,2767.322266 
	C801.133667,2752.955078 805.478516,2739.659668 810.024048,2726.490723 
	C816.530457,2707.640869 823.683960,2689.014893 830.531982,2670.282471 
	C831.179871,2668.510010 831.620178,2666.661621 832.642456,2663.208740 
	C828.385986,2665.221191 825.536987,2666.503906 822.743713,2667.898193 
	C787.665161,2685.409668 752.649536,2703.048340 717.485474,2720.385986 
	C708.226990,2724.951172 698.417725,2727.353516 687.816406,2727.944580 
	C672.564941,2728.795410 661.405151,2715.713623 666.871338,2697.934326 
	C670.179565,2687.174072 677.974304,2679.747070 686.886719,2673.866943 
	C696.573669,2667.475830 706.949036,2662.098877 717.179443,2656.566650 
	C754.901672,2636.166748 792.795959,2616.081787 830.377686,2595.427246 
	C840.257507,2589.997314 849.343323,2583.083496 858.618652,2576.601074 
	C875.971191,2564.473389 886.064697,2546.944824 893.493286,2527.797607 
	C900.224426,2510.447998 905.573364,2492.554688 912.516113,2475.297119 
	C921.814270,2452.184570 932.279724,2429.544434 941.833191,2406.531006 
	C949.963684,2386.945312 957.512695,2367.118408 965.582520,2346.710449 
	C984.720398,2347.836426 1003.594788,2349.650146 1023.245972,2351.756836 
z"/>
<path fill="#9F4A28" opacity="1.000000" stroke="none" 
	d="
M1538.006348,1351.980469 
	C1519.857544,1351.320312 1501.699463,1349.973389 1483.562622,1350.215088 
	C1468.794312,1350.411743 1454.047607,1352.469971 1439.298462,1353.782593 
	C1432.088867,1354.424194 1424.895386,1355.247314 1416.841309,1355.984375 
	C1417.229004,1354.682861 1418.314453,1352.468506 1419.734863,1352.227539 
	C1436.996826,1349.296997 1454.302124,1346.617432 1471.608398,1343.952881 
	C1488.582275,1341.339478 1505.551880,1338.685425 1522.560425,1336.315674 
	C1530.418213,1335.220947 1538.349976,1334.388550 1546.273071,1334.083008 
	C1568.837158,1333.212158 1591.440063,1331.673828 1613.978638,1332.266479 
	C1639.831299,1332.946411 1665.612671,1336.339478 1689.547974,1346.986816 
	C1717.279785,1359.322998 1737.515381,1378.914673 1744.738647,1409.541260 
	C1747.542969,1421.431396 1746.525269,1433.274170 1742.619141,1444.836182 
	C1735.373413,1466.283813 1721.667847,1483.193848 1704.675659,1497.546143 
	C1693.551270,1506.942383 1681.817505,1515.615845 1670.404785,1524.673706 
	C1668.850708,1525.907104 1667.417114,1527.370361 1666.204224,1528.940796 
	C1662.536011,1533.690674 1663.172729,1537.839844 1668.734741,1540.158203 
	C1676.070801,1543.216064 1683.658325,1545.851440 1691.353638,1547.827515 
	C1705.797852,1551.536377 1719.307129,1557.678467 1729.994019,1567.649780 
	C1745.834839,1582.430176 1751.647949,1601.205566 1746.647217,1622.935181 
	C1742.183838,1642.329956 1729.079224,1655.401733 1714.715210,1667.483032 
	C1708.395264,1672.798584 1701.155029,1677.012573 1694.409302,1681.834229 
	C1691.992065,1683.562012 1689.584106,1685.400635 1687.549438,1687.546631 
	C1682.598633,1692.768433 1682.518311,1697.061890 1687.392578,1702.304810 
	C1691.927002,1707.182251 1697.015991,1711.553955 1701.436646,1716.525513 
	C1714.962524,1731.737183 1722.807861,1749.431763 1721.848511,1769.994263 
	C1720.940552,1789.452637 1713.048828,1806.524048 1701.174438,1821.785767 
	C1679.589966,1849.527344 1651.391846,1869.261353 1621.700684,1887.145020 
	C1582.789673,1910.581787 1541.262085,1928.234985 1497.972778,1941.609131 
	C1467.916748,1950.894775 1437.309814,1957.844727 1406.041138,1962.363647 
	C1376.030762,1966.700562 1346.024536,1968.759399 1315.820435,1967.849731 
	C1301.971313,1967.432617 1288.089722,1965.957031 1274.367676,1963.964722 
	C1254.759033,1961.117798 1235.259033,1957.486694 1215.774170,1953.859619 
	C1212.444458,1953.239746 1209.421997,1950.968628 1206.123779,1948.737549 
	C1226.692749,1948.005859 1247.395142,1947.997192 1269.212646,1948.762695 
	C1271.000000,1950.229492 1271.615112,1951.453613 1272.353638,1951.533325 
	C1280.903442,1952.455566 1289.464966,1953.291138 1298.037354,1953.976440 
	C1307.275146,1954.714966 1316.521240,1955.394775 1325.776001,1955.852417 
	C1330.419800,1956.082031 1335.102539,1955.943115 1339.746338,1955.641724 
	C1345.345093,1955.278076 1350.916504,1954.513428 1356.507935,1954.014038 
	C1372.987549,1952.542358 1389.696289,1952.348511 1405.902100,1949.390503 
	C1431.878784,1944.648804 1457.916504,1940.278198 1483.361572,1932.409058 
	C1513.868774,1922.974243 1543.716797,1912.141357 1572.570801,1898.608521 
	C1599.073486,1886.178589 1624.426636,1871.807373 1648.005981,1854.208130 
	C1667.343872,1839.774536 1684.711548,1823.816650 1697.780884,1803.353760 
	C1711.571411,1781.761841 1714.614014,1746.012573 1690.028931,1725.030640 
	C1682.217163,1718.364136 1674.437256,1711.656128 1666.488525,1705.155640 
	C1658.711182,1698.794922 1658.078979,1692.948975 1665.038940,1686.047119 
	C1667.610352,1683.497314 1670.506104,1681.199463 1673.519897,1679.184814 
	C1684.008545,1672.172485 1694.779053,1665.571899 1705.129150,1658.365112 
	C1715.911987,1650.857056 1725.258301,1641.644287 1730.168823,1629.270020 
	C1736.313721,1613.784912 1737.407837,1598.040283 1726.535278,1583.900757 
	C1719.337891,1574.540894 1710.081299,1567.759766 1698.620483,1563.774780 
	C1681.616455,1557.862549 1663.990967,1555.115601 1646.420410,1551.854614 
	C1640.451172,1550.746948 1632.419922,1550.649414 1631.066528,1543.092041 
	C1629.809814,1536.072388 1636.376831,1532.077026 1641.376343,1528.430542 
	C1653.163452,1519.833496 1665.380249,1511.826904 1677.201782,1503.275269 
	C1696.431641,1489.364502 1713.449097,1473.410645 1725.147095,1452.263306 
	C1734.718018,1434.961426 1735.022217,1417.216797 1727.647705,1399.665527 
	C1717.648438,1375.867676 1697.454590,1362.984863 1674.079712,1355.278198 
	C1654.530273,1348.833008 1634.153931,1345.840576 1613.426880,1345.972900 
	C1596.099243,1346.083496 1578.767212,1345.811279 1561.443481,1346.095581 
	C1554.859497,1346.203613 1548.261353,1347.194214 1541.744019,1348.244385 
	C1540.334106,1348.471680 1539.243774,1350.682983 1538.006348,1351.980469 
z"/>
<path fill="#EF9B53" opacity="1.000000" stroke="none" 
	d="
M281.492615,295.261963 
	C277.737213,310.375519 273.815552,325.058807 269.065765,339.469177 
	C262.646454,358.944702 251.608124,375.798737 237.955307,390.990082 
	C232.673111,396.867554 227.366333,402.722931 221.894135,409.244385 
	C206.126663,372.048004 182.278717,339.293060 158.137253,306.702454 
	C152.210754,298.701782 145.947296,290.656769 148.134720,279.612274 
	C160.399490,276.969757 229.313019,284.830566 281.492615,295.261963 
z"/>
<path fill="#030301" opacity="1.000000" stroke="none" 
	d="
M431.415497,482.966309 
	C428.337830,468.839966 418.896210,462.028107 406.603119,458.889343 
	C393.951477,455.659058 383.886536,462.788422 382.387299,475.677399 
	C381.898804,479.876770 382.516052,484.281647 383.137878,488.517639 
	C384.525513,497.970764 380.558075,506.136230 371.850159,510.950165 
	C363.835663,515.380798 355.409790,514.063904 348.154724,506.939972 
	C336.124878,495.127502 332.584534,480.625305 336.784821,464.715790 
	C341.944336,445.173248 352.495972,428.684540 369.007202,416.734650 
	C389.590698,401.837463 411.776764,399.553436 435.022308,410.230957 
	C459.809479,421.616699 475.393005,440.158783 478.915131,467.728546 
	C482.197449,493.421021 464.102570,522.693665 439.817871,531.205261 
	C437.019684,532.186035 433.993683,532.970886 431.059479,533.019897 
	C423.778625,533.141418 417.980103,529.912415 414.980133,523.235291 
	C412.049561,516.712524 412.646790,510.160706 417.664032,504.620087 
	C419.430817,502.668976 421.481689,500.814270 423.743439,499.503082 
	C429.926575,495.918488 432.815735,490.911377 431.415497,482.966309 
z"/>
<path fill="#D44449" opacity="1.000000" stroke="none" 
	d="
M482.389862,593.496887 
	C492.740295,600.568665 500.830475,608.801880 506.487610,619.238892 
	C515.173828,635.264587 514.011658,651.941650 503.240021,664.927490 
	C495.791962,673.906677 485.436249,677.698364 474.448029,679.289673 
	C443.774628,683.731812 404.719635,665.457581 389.818604,637.543030 
	C374.960876,609.709534 389.385315,582.299072 420.574951,577.809265 
	C443.177856,574.555542 463.133209,581.025757 482.389862,593.496887 
z"/>
<path fill="#5E2C17" opacity="1.000000" stroke="none" 
	d="
M1432.029663,1910.128662 
	C1451.690308,1901.254395 1471.601318,1892.889648 1490.950806,1883.382202 
	C1517.583252,1870.296265 1542.024292,1853.781372 1564.768311,1834.601562 
	C1579.162354,1822.463501 1592.203247,1809.408447 1600.693970,1792.476074 
	C1613.102051,1767.731445 1609.350220,1746.164795 1590.340332,1726.995728 
	C1576.040161,1712.575928 1558.497681,1705.782349 1539.272583,1702.044556 
	C1532.851074,1700.796021 1526.320068,1700.110352 1517.473267,1698.823120 
	C1526.545532,1694.656860 1533.847656,1691.317749 1541.137817,1687.953125 
	C1567.426025,1675.819824 1593.648804,1663.524170 1615.982422,1644.618042 
	C1627.076416,1635.226440 1633.675415,1622.860474 1635.590088,1608.639038 
	C1636.717285,1600.266602 1632.821289,1592.482178 1628.746582,1584.662720 
	C1635.648193,1583.558350 1641.835327,1583.154785 1648.026855,1583.069946 
	C1650.642334,1583.034058 1653.258911,1583.771484 1655.889038,1583.981689 
	C1667.563721,1584.914673 1678.833618,1587.558594 1689.343750,1592.722534 
	C1705.014038,1600.421631 1707.271606,1615.035522 1695.290771,1627.778198 
	C1685.067993,1638.651001 1671.999146,1645.189941 1659.285278,1652.329468 
	C1648.867676,1658.179443 1638.039551,1663.443115 1628.242554,1670.198486 
	C1622.422485,1674.211792 1617.429810,1680.075317 1613.518311,1686.057251 
	C1607.323486,1695.530762 1609.177979,1703.510254 1616.976074,1712.104004 
	C1623.878174,1719.710327 1632.173462,1724.651611 1641.668335,1728.332520 
	C1648.109863,1730.829468 1654.426270,1734.159058 1660.046143,1738.170532 
	C1677.695923,1750.769287 1683.287598,1764.678101 1672.697388,1786.430542 
	C1665.871826,1800.450195 1654.596680,1810.532349 1642.845703,1820.560181 
	C1623.492432,1837.075562 1602.096558,1850.250366 1579.775024,1861.975952 
	C1545.597168,1879.929443 1510.009521,1894.598511 1472.659180,1904.635254 
	C1460.542725,1907.891235 1448.174316,1910.203247 1435.949219,1913.066650 
	C1433.186768,1913.713623 1432.363037,1912.403442 1432.029663,1910.128662 
z"/>
<path fill="#5F2D18" opacity="1.000000" stroke="none" 
	d="
M1574.001221,1560.067139 
	C1550.765381,1559.391235 1527.532471,1558.536743 1504.291870,1558.153442 
	C1497.715698,1558.045044 1491.125244,1559.427979 1484.525269,1559.904419 
	C1480.953735,1560.162109 1477.348511,1559.950317 1472.968506,1558.231323 
	C1475.602173,1556.697266 1478.149292,1554.984741 1480.883057,1553.656738 
	C1509.028564,1539.981567 1536.554932,1525.125366 1562.425537,1507.534668 
	C1576.383667,1498.043823 1589.742065,1487.459717 1602.276489,1476.155273 
	C1611.823242,1467.545044 1619.801636,1457.249756 1626.250854,1445.794434 
	C1637.193115,1426.358398 1632.266113,1401.467651 1617.142090,1386.010864 
	C1612.951416,1381.728149 1608.716553,1377.488647 1604.802368,1372.206543 
	C1608.186401,1366.619751 1612.613770,1367.961792 1616.838379,1368.556885 
	C1619.768188,1368.969482 1622.680054,1369.931152 1625.599121,1369.927368 
	C1640.685669,1369.907715 1655.152344,1373.090332 1669.265503,1378.087402 
	C1683.754517,1383.217651 1695.924072,1391.563354 1703.878540,1405.005493 
	C1707.963867,1411.909180 1709.331909,1419.500366 1708.475708,1427.696411 
	C1707.271606,1439.222656 1701.468872,1448.401733 1694.210327,1456.619019 
	C1677.374268,1475.679321 1656.846558,1490.200806 1635.296875,1503.468384 
	C1618.956787,1513.528809 1602.820557,1523.948486 1586.951050,1534.734131 
	C1578.299927,1540.613770 1573.088867,1548.952637 1574.001221,1560.067139 
z"/>
<path fill="#72351C" opacity="1.000000" stroke="none" 
	d="
M1574.522461,1560.617676 
	C1573.088867,1548.952637 1578.299927,1540.613770 1586.951050,1534.734131 
	C1602.820557,1523.948486 1618.956787,1513.528809 1635.296875,1503.468384 
	C1656.846558,1490.200806 1677.374268,1475.679321 1694.210327,1456.619019 
	C1701.468872,1448.401733 1707.271606,1439.222656 1708.475708,1427.696411 
	C1709.331909,1419.500366 1707.963867,1411.909180 1703.878540,1405.005493 
	C1695.924072,1391.563354 1683.754517,1383.217651 1669.265503,1378.087402 
	C1655.152344,1373.090332 1640.685669,1369.907715 1625.599121,1369.927368 
	C1622.680054,1369.931152 1619.768188,1368.969482 1616.838379,1368.556885 
	C1612.613770,1367.961792 1608.186401,1366.619751 1604.471191,1371.625732 
	C1598.160400,1369.080933 1592.481323,1366.093994 1586.575317,1361.774414 
	C1589.011719,1359.628174 1591.698853,1358.051758 1594.334106,1358.133789 
	C1605.584351,1358.484009 1616.846191,1359.031616 1628.051514,1360.071777 
	C1638.234741,1361.016968 1648.561279,1361.823242 1658.450928,1364.227661 
	C1678.377686,1369.072388 1696.852051,1377.000122 1709.425049,1394.477783 
	C1716.826416,1404.766357 1721.717773,1416.248291 1719.593140,1428.938354 
	C1717.668457,1440.433594 1713.031128,1451.363892 1704.818848,1460.078491 
	C1689.300659,1476.546021 1672.964966,1492.075684 1653.663330,1504.239014 
	C1638.499634,1513.794556 1623.478516,1523.601074 1608.763062,1533.827148 
	C1604.602173,1536.718872 1601.101562,1541.089478 1598.433716,1545.472778 
	C1594.790161,1551.458862 1596.051025,1555.078857 1602.072266,1558.637695 
	C1604.593872,1560.128052 1607.546387,1561.190308 1610.435059,1561.703247 
	C1619.539673,1563.320190 1628.683350,1564.769165 1637.855713,1565.939453 
	C1649.980469,1567.486816 1662.251099,1568.117065 1674.266357,1570.234375 
	C1686.736328,1572.431763 1698.545410,1576.951538 1708.961060,1584.519043 
	C1717.661133,1590.840088 1723.911621,1605.961792 1721.189575,1615.311279 
	C1717.559570,1627.779663 1710.932739,1638.420654 1700.093140,1645.883301 
	C1691.089844,1652.081787 1681.824097,1657.907715 1672.564819,1663.723755 
	C1663.574463,1669.370972 1653.800049,1673.979126 1645.525146,1680.507812 
	C1632.762451,1690.577881 1633.019897,1702.023682 1646.348022,1710.120605 
	C1653.723511,1714.601440 1661.337402,1718.703735 1668.588745,1723.372803 
	C1693.341309,1739.310669 1701.021729,1763.032349 1689.432373,1790.754639 
	C1680.998657,1810.928467 1664.794922,1825.161865 1647.743774,1837.909790 
	C1633.701050,1848.408569 1619.055420,1858.279907 1603.865479,1867.018921 
	C1586.045776,1877.270874 1567.787964,1887.014404 1548.936157,1895.164795 
	C1514.494873,1910.055054 1478.993896,1922.185913 1442.093262,1929.555542 
	C1425.256226,1932.918091 1408.237183,1935.417603 1391.246094,1937.941406 
	C1383.078613,1939.154541 1374.791260,1939.605103 1366.545776,1940.237549 
	C1357.640503,1940.920532 1348.721802,1941.433838 1339.806396,1941.975830 
	C1336.931274,1942.150635 1334.417236,1941.637451 1334.031616,1938.063477 
	C1347.518677,1934.790527 1361.005737,1931.517578 1375.433838,1928.949219 
	C1379.005493,1933.594360 1383.065063,1932.118042 1386.392334,1931.760864 
	C1393.931030,1930.952026 1401.370850,1929.268066 1408.889404,1928.216797 
	C1441.180298,1923.701416 1472.557251,1915.204956 1503.388672,1905.034912 
	C1539.469727,1893.133179 1573.805298,1876.925537 1606.492920,1857.577271 
	C1629.692383,1843.845093 1651.421875,1827.896606 1669.347778,1807.470215 
	C1674.343994,1801.776855 1679.314575,1795.544189 1682.229248,1788.680908 
	C1685.397095,1781.221436 1688.021851,1772.623535 1687.533447,1764.729370 
	C1686.777954,1752.523804 1680.535889,1741.750122 1670.422974,1734.410400 
	C1662.951172,1728.987671 1654.401123,1725.074585 1646.531738,1720.167725 
	C1640.648071,1716.498901 1634.496582,1712.937988 1629.513916,1708.220337 
	C1621.797241,1700.914062 1621.551025,1691.705200 1628.920288,1684.373657 
	C1634.741699,1678.582031 1641.262329,1673.130249 1648.347168,1669.044067 
	C1665.020142,1659.427856 1682.034302,1650.531616 1697.347778,1638.615601 
	C1704.027344,1633.418091 1708.277466,1626.778931 1711.473145,1619.750244 
	C1716.191162,1609.373535 1713.356934,1599.414429 1704.714844,1591.930176 
	C1700.266113,1588.077393 1695.176880,1584.388184 1689.730591,1582.366211 
	C1669.645752,1574.909912 1648.398682,1573.645386 1627.272949,1572.024170 
	C1623.532471,1571.737061 1619.816650,1571.871094 1617.949097,1576.071167 
	C1604.617310,1568.310791 1590.165039,1563.776245 1574.522461,1560.617676 
z"/>
<path fill="#8C4223" opacity="1.000000" stroke="none" 
	d="
M1538.860840,1351.985229 
	C1539.243774,1350.682983 1540.334106,1348.471680 1541.744019,1348.244385 
	C1548.261353,1347.194214 1554.859497,1346.203613 1561.443481,1346.095581 
	C1578.767212,1345.811279 1596.099243,1346.083496 1613.426880,1345.972900 
	C1634.153931,1345.840576 1654.530273,1348.833008 1674.079712,1355.278198 
	C1697.454590,1362.984863 1717.648438,1375.867676 1727.647705,1399.665527 
	C1735.022217,1417.216797 1734.718018,1434.961426 1725.147095,1452.263306 
	C1713.449097,1473.410645 1696.431641,1489.364502 1677.201782,1503.275269 
	C1665.380249,1511.826904 1653.163452,1519.833496 1641.376343,1528.430542 
	C1636.376831,1532.077026 1629.809814,1536.072388 1631.066528,1543.092041 
	C1632.419922,1550.649414 1640.451172,1550.746948 1646.420410,1551.854614 
	C1663.990967,1555.115601 1681.616455,1557.862549 1698.620483,1563.774780 
	C1710.081299,1567.759766 1719.337891,1574.540894 1726.535278,1583.900757 
	C1737.407837,1598.040283 1736.313721,1613.784912 1730.168823,1629.270020 
	C1725.258301,1641.644287 1715.911987,1650.857056 1705.129150,1658.365112 
	C1694.779053,1665.571899 1684.008545,1672.172485 1673.519897,1679.184814 
	C1670.506104,1681.199463 1667.610352,1683.497314 1665.038940,1686.047119 
	C1658.078979,1692.948975 1658.711182,1698.794922 1666.488525,1705.155640 
	C1674.437256,1711.656128 1682.217163,1718.364136 1690.028931,1725.030640 
	C1714.614014,1746.012573 1711.571411,1781.761841 1697.780884,1803.353760 
	C1684.711548,1823.816650 1667.343872,1839.774536 1648.005981,1854.208130 
	C1624.426636,1871.807373 1599.073486,1886.178589 1572.570801,1898.608521 
	C1543.716797,1912.141357 1513.868774,1922.974243 1483.361572,1932.409058 
	C1457.916504,1940.278198 1431.878784,1944.648804 1405.902100,1949.390503 
	C1389.696289,1952.348511 1372.987549,1952.542358 1356.507935,1954.014038 
	C1350.916504,1954.513428 1345.345093,1955.278076 1339.746338,1955.641724 
	C1335.102539,1955.943115 1330.419800,1956.082031 1325.776001,1955.852417 
	C1316.521240,1955.394775 1307.275146,1954.714966 1298.037354,1953.976440 
	C1289.464966,1953.291138 1280.903442,1952.455566 1272.353638,1951.533325 
	C1271.615112,1951.453613 1271.000000,1950.229492 1270.147949,1948.761230 
	C1270.749512,1947.435059 1271.492065,1946.475220 1272.317993,1946.397095 
	C1281.619385,1945.517334 1290.933838,1944.773193 1301.304199,1944.791504 
	C1304.368042,1946.391479 1306.347046,1947.799683 1308.380859,1947.883789 
	C1315.367554,1948.172729 1322.379272,1948.181274 1329.370972,1947.964600 
	C1347.951416,1947.388672 1366.669922,1947.838623 1385.065186,1945.637573 
	C1405.349976,1943.210327 1425.319092,1938.194824 1445.457153,1934.476562 
	C1466.372314,1930.614746 1486.908569,1925.274170 1506.839844,1917.929565 
	C1523.344116,1911.847534 1539.474976,1904.759521 1555.850830,1898.319214 
	C1578.191040,1889.533569 1599.280884,1878.330688 1619.520752,1865.520630 
	C1634.385742,1856.112549 1648.539795,1845.754517 1661.889771,1834.202148 
	C1676.402710,1821.643677 1688.761475,1807.604736 1696.889282,1790.104248 
	C1707.012573,1768.307129 1700.303467,1742.158569 1684.920654,1729.943481 
	C1675.062378,1722.115112 1665.218872,1714.259033 1655.148438,1706.709229 
	C1646.281494,1700.061768 1645.440430,1690.103394 1653.944214,1683.402100 
	C1658.604492,1679.729126 1663.816772,1676.734375 1668.888672,1673.609863 
	C1684.137207,1664.215576 1700.015747,1655.831665 1712.572510,1642.529785 
	C1738.330566,1615.243164 1729.958130,1586.744751 1700.847290,1572.499390 
	C1684.575684,1564.536865 1666.808105,1562.002319 1649.000244,1559.995117 
	C1641.771973,1559.180542 1634.485229,1558.657104 1627.351074,1557.325928 
	C1623.518677,1556.610718 1619.654785,1554.939941 1616.335693,1552.855591 
	C1611.081543,1549.555786 1610.516968,1544.890869 1614.838135,1540.348877 
	C1618.703613,1536.285645 1622.955811,1532.458862 1627.531128,1529.226929 
	C1641.614136,1519.278442 1656.099487,1509.896484 1670.120850,1499.864502 
	C1688.839844,1486.471680 1706.143921,1471.601440 1717.848633,1451.235840 
	C1724.168091,1440.240112 1727.993164,1428.394653 1725.474365,1415.966797 
	C1719.162354,1384.821533 1696.083618,1369.472412 1668.465698,1360.482056 
	C1656.112061,1356.460571 1642.749146,1354.898560 1629.491821,1353.418457 
	C1610.818481,1351.333862 1592.274048,1352.934814 1573.706177,1352.015625 
	C1570.760742,1351.869873 1568.377319,1352.544067 1567.975464,1356.034302 
	C1558.555420,1354.686157 1549.135254,1353.338135 1538.860840,1351.985229 
z"/>
<path fill="#803C20" opacity="1.000000" stroke="none" 
	d="
M1568.453125,1356.576294 
	C1568.377319,1352.544067 1570.760742,1351.869873 1573.706177,1352.015625 
	C1592.274048,1352.934814 1610.818481,1351.333862 1629.491821,1353.418457 
	C1642.749146,1354.898560 1656.112061,1356.460571 1668.465698,1360.482056 
	C1696.083618,1369.472412 1719.162354,1384.821533 1725.474365,1415.966797 
	C1727.993164,1428.394653 1724.168091,1440.240112 1717.848633,1451.235840 
	C1706.143921,1471.601440 1688.839844,1486.471680 1670.120850,1499.864502 
	C1656.099487,1509.896484 1641.614136,1519.278442 1627.531128,1529.226929 
	C1622.955811,1532.458862 1618.703613,1536.285645 1614.838135,1540.348877 
	C1610.516968,1544.890869 1611.081543,1549.555786 1616.335693,1552.855591 
	C1619.654785,1554.939941 1623.518677,1556.610718 1627.351074,1557.325928 
	C1634.485229,1558.657104 1641.771973,1559.180542 1649.000244,1559.995117 
	C1666.808105,1562.002319 1684.575684,1564.536865 1700.847290,1572.499390 
	C1729.958130,1586.744751 1738.330566,1615.243164 1712.572510,1642.529785 
	C1700.015747,1655.831665 1684.137207,1664.215576 1668.888672,1673.609863 
	C1663.816772,1676.734375 1658.604492,1679.729126 1653.944214,1683.402100 
	C1645.440430,1690.103394 1646.281494,1700.061768 1655.148438,1706.709229 
	C1665.218872,1714.259033 1675.062378,1722.115112 1684.920654,1729.943481 
	C1700.303467,1742.158569 1707.012573,1768.307129 1696.889282,1790.104248 
	C1688.761475,1807.604736 1676.402710,1821.643677 1661.889771,1834.202148 
	C1648.539795,1845.754517 1634.385742,1856.112549 1619.520752,1865.520630 
	C1599.280884,1878.330688 1578.191040,1889.533569 1555.850830,1898.319214 
	C1539.474976,1904.759521 1523.344116,1911.847534 1506.839844,1917.929565 
	C1486.908569,1925.274170 1466.372314,1930.614746 1445.457153,1934.476562 
	C1425.319092,1938.194824 1405.349976,1943.210327 1385.065186,1945.637573 
	C1366.669922,1947.838623 1347.951416,1947.388672 1329.370972,1947.964600 
	C1322.379272,1948.181274 1315.367554,1948.172729 1308.380859,1947.883789 
	C1306.347046,1947.799683 1304.368042,1946.391479 1302.181885,1944.797485 
	C1312.131836,1942.018555 1322.263672,1940.032471 1333.213623,1938.054932 
	C1334.417236,1941.637451 1336.931274,1942.150635 1339.806396,1941.975830 
	C1348.721802,1941.433838 1357.640503,1940.920532 1366.545776,1940.237549 
	C1374.791260,1939.605103 1383.078613,1939.154541 1391.246094,1937.941406 
	C1408.237183,1935.417603 1425.256226,1932.918091 1442.093262,1929.555542 
	C1478.993896,1922.185913 1514.494873,1910.055054 1548.936157,1895.164795 
	C1567.787964,1887.014404 1586.045776,1877.270874 1603.865479,1867.018921 
	C1619.055420,1858.279907 1633.701050,1848.408569 1647.743774,1837.909790 
	C1664.794922,1825.161865 1680.998657,1810.928467 1689.432373,1790.754639 
	C1701.021729,1763.032349 1693.341309,1739.310669 1668.588745,1723.372803 
	C1661.337402,1718.703735 1653.723511,1714.601440 1646.348022,1710.120605 
	C1633.019897,1702.023682 1632.762451,1690.577881 1645.525146,1680.507812 
	C1653.800049,1673.979126 1663.574463,1669.370972 1672.564819,1663.723755 
	C1681.824097,1657.907715 1691.089844,1652.081787 1700.093140,1645.883301 
	C1710.932739,1638.420654 1717.559570,1627.779663 1721.189575,1615.311279 
	C1723.911621,1605.961792 1717.661133,1590.840088 1708.961060,1584.519043 
	C1698.545410,1576.951538 1686.736328,1572.431763 1674.266357,1570.234375 
	C1662.251099,1568.117065 1649.980469,1567.486816 1637.855713,1565.939453 
	C1628.683350,1564.769165 1619.539673,1563.320190 1610.435059,1561.703247 
	C1607.546387,1561.190308 1604.593872,1560.128052 1602.072266,1558.637695 
	C1596.051025,1555.078857 1594.790161,1551.458862 1598.433716,1545.472778 
	C1601.101562,1541.089478 1604.602173,1536.718872 1608.763062,1533.827148 
	C1623.478516,1523.601074 1638.499634,1513.794556 1653.663330,1504.239014 
	C1672.964966,1492.075684 1689.300659,1476.546021 1704.818848,1460.078491 
	C1713.031128,1451.363892 1717.668457,1440.433594 1719.593140,1428.938354 
	C1721.717773,1416.248291 1716.826416,1404.766357 1709.425049,1394.477783 
	C1696.852051,1377.000122 1678.377686,1369.072388 1658.450928,1364.227661 
	C1648.561279,1361.823242 1638.234741,1361.016968 1628.051514,1360.071777 
	C1616.846191,1359.031616 1605.584351,1358.484009 1594.334106,1358.133789 
	C1591.698853,1358.051758 1589.011719,1359.628174 1586.162109,1361.238037 
	C1580.294067,1360.395752 1574.612427,1358.756958 1568.453125,1356.576294 
z"/>
<path fill="#67301A" opacity="1.000000" stroke="none" 
	d="
M1618.252075,1576.643066 
	C1619.816650,1571.871094 1623.532471,1571.737061 1627.272949,1572.024170 
	C1648.398682,1573.645386 1669.645752,1574.909912 1689.730591,1582.366211 
	C1695.176880,1584.388184 1700.266113,1588.077393 1704.714844,1591.930176 
	C1713.356934,1599.414429 1716.191162,1609.373535 1711.473145,1619.750244 
	C1708.277466,1626.778931 1704.027344,1633.418091 1697.347778,1638.615601 
	C1682.034302,1650.531616 1665.020142,1659.427856 1648.347168,1669.044067 
	C1641.262329,1673.130249 1634.741699,1678.582031 1628.920288,1684.373657 
	C1621.551025,1691.705200 1621.797241,1700.914062 1629.513916,1708.220337 
	C1634.496582,1712.937988 1640.648071,1716.498901 1646.531738,1720.167725 
	C1654.401123,1725.074585 1662.951172,1728.987671 1670.422974,1734.410400 
	C1680.535889,1741.750122 1686.777954,1752.523804 1687.533447,1764.729370 
	C1688.021851,1772.623535 1685.397095,1781.221436 1682.229248,1788.680908 
	C1679.314575,1795.544189 1674.343994,1801.776855 1669.347778,1807.470215 
	C1651.421875,1827.896606 1629.692383,1843.845093 1606.492920,1857.577271 
	C1573.805298,1876.925537 1539.469727,1893.133179 1503.388672,1905.034912 
	C1472.557251,1915.204956 1441.180298,1923.701416 1408.889404,1928.216797 
	C1401.370850,1929.268066 1393.931030,1930.952026 1386.392334,1931.760864 
	C1383.065063,1932.118042 1379.005493,1933.594360 1376.211914,1928.901611 
	C1394.215088,1922.172607 1412.381348,1916.195923 1431.288574,1910.174072 
	C1432.363037,1912.403442 1433.186768,1913.713623 1435.949219,1913.066650 
	C1448.174316,1910.203247 1460.542725,1907.891235 1472.659180,1904.635254 
	C1510.009521,1894.598511 1545.597168,1879.929443 1579.775024,1861.975952 
	C1602.096558,1850.250366 1623.492432,1837.075562 1642.845703,1820.560181 
	C1654.596680,1810.532349 1665.871826,1800.450195 1672.697388,1786.430542 
	C1683.287598,1764.678101 1677.695923,1750.769287 1660.046143,1738.170532 
	C1654.426270,1734.159058 1648.109863,1730.829468 1641.668335,1728.332520 
	C1632.173462,1724.651611 1623.878174,1719.710327 1616.976074,1712.104004 
	C1609.177979,1703.510254 1607.323486,1695.530762 1613.518311,1686.057251 
	C1617.429810,1680.075317 1622.422485,1674.211792 1628.242554,1670.198486 
	C1638.039551,1663.443115 1648.867676,1658.179443 1659.285278,1652.329468 
	C1671.999146,1645.189941 1685.067993,1638.651001 1695.290771,1627.778198 
	C1707.271606,1615.035522 1705.014038,1600.421631 1689.343750,1592.722534 
	C1678.833618,1587.558594 1667.563721,1584.914673 1655.889038,1583.981689 
	C1653.258911,1583.771484 1650.642334,1583.034058 1648.026855,1583.069946 
	C1641.835327,1583.154785 1635.648193,1583.558350 1628.620850,1583.941895 
	C1624.706543,1581.772217 1621.630737,1579.493652 1618.252075,1576.643066 
z"/>
<path fill="#5F2D18" opacity="1.000000" stroke="none" 
	d="
M1469.090820,1561.089966 
	C1468.967773,1561.158447 1469.213745,1561.021484 1469.090820,1561.089966 
z"/>
</svg>